<?xml version="1.0" encoding="UTF-8"?>
<svg version="1.1" xmlns="http://www.w3.org/2000/svg" width="512" height="512">
<path d="M0 0 C1.52712069 0.67758629 3.05448948 1.35461354 4.58203125 2.03125 C30.77467575 14.27839974 55.46130014 29.46130014 76 50 C77.11987133 50.9436204 78.24529193 51.88067871 79.375 52.8125 C107.08770154 76.48994735 124.91147663 116.36144417 129 152 C129.34602049 158.10734769 129.25376862 164.23026552 129.22705078 170.34472656 C129.22648562 172.16913344 129.22680527 173.99354077 129.22793579 175.81794739 C129.22850621 180.73654195 129.21680252 185.65503763 129.20278788 190.57360935 C129.19022841 195.7265376 129.18910592 200.87946848 129.18673706 206.03240967 C129.18053756 215.77496434 129.16414756 225.51747376 129.14403808 235.26000857 C129.12163132 246.35801373 129.11067366 257.45602112 129.10064721 268.55404329 C129.07977989 291.36938721 129.04463383 314.18469106 129 337 C95.00280108 337.02286537 61.00560406 337.04049772 27.00839916 337.05106533 C22.99900763 337.05231611 18.98961612 337.05361042 14.98022461 337.05493164 C13.78287686 337.05532511 13.78287686 337.05532511 12.56134026 337.05572652 C-0.38073922 337.06008342 -13.32281428 337.06797107 -26.26489114 337.0771528 C-39.53463131 337.0864888 -52.80436916 337.0920555 -66.07411247 337.09408849 C-74.26893584 337.09546383 -82.46374672 337.09981501 -90.65856624 337.10791647 C-96.93161554 337.11380391 -103.20465522 337.1144591 -109.47770691 337.11310768 C-112.0589919 337.11338422 -114.64027734 337.11539209 -117.22155952 337.11920547 C-120.7288552 337.12413545 -124.23609616 337.12300087 -127.74339294 337.12025452 C-128.7793633 337.12316736 -129.81533365 337.1260802 -130.88269705 337.12908131 C-131.81475471 337.12709026 -132.74681238 337.12509921 -133.70711422 337.12304783 C-134.92316858 337.12361741 -134.92316858 337.12361741 -136.16378969 337.1241985 C-138 337 -138 337 -139 336 C-139.10141473 333.79802608 -139.13078128 331.59273386 -139.13371277 329.38842773 C-139.13597833 328.68902982 -139.13824388 327.9896319 -139.14057809 327.26904011 C-139.14694693 324.90720823 -139.14608684 322.54543331 -139.14526367 320.18359375 C-139.14825377 318.49676438 -139.15165595 316.80993569 -139.15544128 315.12310791 C-139.1643106 310.52299519 -139.1666209 305.92290105 -139.16725707 301.32278061 C-139.16796707 298.44432125 -139.17010064 295.56586663 -139.17275429 292.68740845 C-139.18202435 282.63079529 -139.18608797 272.57419541 -139.18530273 262.51757812 C-139.18470469 253.17195464 -139.19519831 243.82638938 -139.2110464 234.4807806 C-139.22418456 226.44404042 -139.22948386 218.40731909 -139.22884732 210.37056828 C-139.22859374 205.57733686 -139.23136559 200.78415693 -139.24202538 195.99093628 C-139.25180975 191.46672174 -139.25171581 186.94260671 -139.24450874 182.41838837 C-139.2434749 180.77104291 -139.24575292 179.12369093 -139.2518692 177.47635651 C-139.31067962 160.51602189 -137.40573827 144.40583385 -133 128 C-132.83161621 127.35240723 -132.66323242 126.70481445 -132.48974609 126.03759766 C-128.18741571 109.78114124 -120.81002097 93.66325565 -111 80 C-110.59088379 79.42008301 -110.18176758 78.84016602 -109.76025391 78.24267578 C-102.30002705 67.72047522 -94.09566881 58.13963422 -85 49 C-84.47325684 48.46922852 -83.94651367 47.93845703 -83.40380859 47.39160156 C-70.8830024 34.93792047 -56.23723011 24.84565161 -41 16 C-40.40574219 15.65018066 -39.81148438 15.30036133 -39.19921875 14.93994141 C-31.246876 10.2702039 -23.1329422 5.91752578 -14.875 1.8125 C-13.68463135 1.19580444 -13.68463135 1.19580444 -12.47021484 0.56665039 C-7.54826582 -1.81773016 -5.12643709 -2.54685061 0 0 Z M-14.5625 17.4375 C-15.25432373 17.80222412 -15.94614746 18.16694824 -16.65893555 18.54272461 C-18.78523529 19.67349746 -20.89401853 20.83188493 -23 22 C-23.63486328 22.34836914 -24.26972656 22.69673828 -24.92382812 23.05566406 C-37.27356889 29.85915327 -48.83452082 37.39138529 -60 46 C-60.78632813 46.57878906 -61.57265625 47.15757812 -62.3828125 47.75390625 C-68.27758316 52.21994436 -73.50815638 57.30014488 -78.75 62.5 C-79.47147217 63.21220703 -80.19294434 63.92441406 -80.9362793 64.65820312 C-85.41297661 69.1613101 -89.3405039 73.81437632 -93 79 C-93.40992188 79.57186035 -93.81984375 80.1437207 -94.2421875 80.73291016 C-95.38213283 82.33405837 -96.50385562 83.94813132 -97.625 85.5625 C-98.72714844 87.14224609 -98.72714844 87.14224609 -99.8515625 88.75390625 C-102.06447421 92.09741467 -104.0695632 95.48910278 -106 99 C-106.62519531 100.13695312 -107.25039062 101.27390625 -107.89453125 102.4453125 C-124.38006395 133.66069842 -125.32071055 165.34764944 -125.20278788 199.83214021 C-125.19011468 204.17622879 -125.18909716 208.52032145 -125.18673706 212.86442566 C-125.18057026 221.05546571 -125.16422588 229.24645109 -125.14403808 237.43746728 C-125.12152779 246.77755118 -125.11064797 256.11763797 -125.10064721 265.45774233 C-125.07985423 284.63852652 -125.04436133 303.81925682 -125 323 C-118.07 323 -111.14 323 -104 323 C-104.20496094 320.91042969 -104.40992188 318.82085937 -104.62109375 316.66796875 C-104.82398897 314.56934838 -105.02545824 312.47059545 -105.22680664 310.37182617 C-105.36400153 308.94948241 -105.5026015 307.52727325 -105.64282227 306.10522461 C-107.56451907 286.58994261 -108.18659595 267.19729356 -108.18530273 247.58691406 C-108.18748427 243.90157421 -108.20570165 240.21653711 -108.22460938 236.53125 C-108.32576451 194.69897154 -105.90267842 144.44176459 -76.08203125 111.7265625 C-74.78857913 110.05311215 -74.78857913 110.05311215 -75.1953125 107.9921875 C-75.99514463 106.01202057 -76.94923269 104.31953367 -78.0625 102.5 C-80.78144759 97.1220816 -80.88542653 91.8952758 -80 86 C-78.09417673 80.43318815 -75.95121947 76.31139251 -71 73 C-67.06288176 83.09956418 -66.63507797 91.25123905 -68 102 C-66.38134774 100.5879842 -64.76457728 99.17376513 -63.15625 97.75 C-61 96 -61 96 -58.53125 94.5 C-55.89592391 92.83207209 -53.95315504 91.44253617 -52 89 C-51.48659356 85.58735717 -51.62331924 82.52448312 -51.859375 79.0859375 C-52.15276577 72.64764006 -48.87065028 68.18012406 -44.6953125 63.51171875 C-42.03552916 61.13997647 -39.3569852 60.14137497 -36 59 C-36.38577055 66.74201581 -37.42388772 73.67671225 -40 81 C-35.67559366 79.12152485 -32.77671396 76.10694769 -29.4140625 72.875 C-24.46981914 69.03481098 -19.73474074 68.75972187 -13.625 68.875 C-12.37976563 68.89304688 -11.13453125 68.91109375 -9.8515625 68.9296875 C-8.91054687 68.95289063 -7.96953125 68.97609375 -7 69 C-12.18368758 77.09951185 -17.89033999 81.81802075 -27.21484375 84.45703125 C-30 85 -30 85 -32.03735352 85.09887695 C-38.49098093 85.4610668 -42.10055539 87.53488419 -47.0625 91.5625 C-47.75279297 92.10100586 -48.44308594 92.63951172 -49.15429688 93.19433594 C-54.11420979 97.12151911 -58.77750844 101.27747654 -63 106 C-62.01 106.495 -62.01 106.495 -61 107 C-59.26826207 106.41983864 -57.56265117 105.76059526 -55.875 105.0625 C-48.29126619 102.20127406 -42.6508528 102.44971573 -35 105 C-40.13422839 111.74839868 -46.45187505 117.32389707 -55 119 C-60.42743102 118.84745386 -65.69272976 118.12287634 -71 117 C-104.85929774 154.13941721 -98.46828145 221.50681668 -96.5625 267.85229492 C-95.62536446 286.37423822 -93.30194322 304.76069457 -90 323 C-84.72 323 -79.44 323 -74 323 C-74 306.17 -74 289.34 -74 272 C-64.98479767 274.08043131 -58.71345973 275.69580424 -51 280 C-50.33154053 280.24395508 -49.66308105 280.48791016 -48.97436523 280.73925781 C-46.1744867 282.52713623 -46.04905127 284.16356821 -45.2890625 287.35546875 C-45.01650635 288.44682129 -44.7439502 289.53817383 -44.46313477 290.66259766 C-44.18655029 291.82581543 -43.90996582 292.9890332 -43.625 294.1875 C-41.10908855 304.18661763 -38.23659036 313.59570053 -34 323 C-31.69 323 -29.38 323 -27 323 C-27.22139648 322.49251221 -27.44279297 321.98502441 -27.67089844 321.4621582 C-39.31758303 294.63903159 -39.31758303 294.63903159 -39 284 C-38.43152344 284.71285156 -37.86304688 285.42570312 -37.27734375 286.16015625 C-34.88108117 289.13248196 -32.45119634 292.07284321 -30 295 C-29.45085937 295.66257812 -28.90171875 296.32515625 -28.3359375 297.0078125 C-24.65010284 301.07168149 -20.39409519 303.76485331 -15.6875 306.5 C-14.75224487 307.04466919 -14.75224487 307.04466919 -13.7980957 307.6003418 C-12.2352593 308.4694386 -10.62030792 309.24343599 -9 310 C-8.34 309.67 -7.68 309.34 -7 309 C-8.78673205 307.4941255 -10.57953508 305.9954515 -12.375 304.5 C-13.87160156 303.24703125 -13.87160156 303.24703125 -15.3984375 301.96875 C-17.72204708 299.79885244 -17.72204708 299.79885244 -20 300 C-20.24621094 299.43539063 -20.49242187 298.87078125 -20.74609375 298.2890625 C-22.21406905 295.60920728 -23.9935669 293.62041197 -26.0625 291.375 C-29.90277778 287.19444444 -29.90277778 287.19444444 -31 285 C-29.90945312 285.05220703 -29.90945312 285.05220703 -28.796875 285.10546875 C-16.52494405 285.43586689 -2.55883426 282.93294352 6.83984375 274.3125 C7.22269531 273.879375 7.60554687 273.44625 8 273 C6.58252322 273.2665609 5.16608367 273.53863476 3.75 273.8125 C2.82058594 273.99167969 1.89117187 274.17085938 0.93359375 274.35546875 C-1.95435619 274.94361534 -1.95435619 274.94361534 -4.52734375 275.80078125 C-20.06143175 280.61383935 -38.19170291 279.70697604 -53 273 C-55.03294313 271.71745566 -57.03879389 270.38976558 -59 269 C-60.03125 268.319375 -61.0625 267.63875 -62.125 266.9375 C-67.61660268 262.06731552 -68.93407236 255.38476906 -69.3828125 248.31640625 C-70.37773364 219.96384269 -60.64773723 191.85689327 -44 169 C-43.56429687 168.38640625 -43.12859375 167.7728125 -42.6796875 167.140625 C-36.81840917 159.5712027 -28.05093754 154.74760604 -19 152 C-18.01 152 -17.02 152 -16 152 C-15.97421875 152.7734375 -15.9484375 153.546875 -15.921875 154.34375 C-15.28909626 165.96386877 -11.98702645 171.41758984 -3.92578125 179.703125 C0.99267655 185.56935864 -0.83128998 194.62177641 -1.296875 201.8046875 C-1.3498877 202.6495874 -1.40290039 203.4944873 -1.45751953 204.36499023 C-1.56790532 206.06052233 -1.68843738 207.75542877 -1.81982422 209.44946289 C-1.87154785 210.23828857 -1.92327148 211.02711426 -1.9765625 211.83984375 C-2.02893066 212.54488037 -2.08129883 213.24991699 -2.13525391 213.97631836 C-1.96849606 216.47136485 -1.39366689 217.92623037 0 220 C5.92984658 222.05162102 11.76600839 222.39517542 18 222.625 C19.30517578 222.68300781 19.30517578 222.68300781 20.63671875 222.7421875 C22.75750486 222.83540887 24.87872185 222.91874136 27 223 C27 228.07453573 26.46005248 232.49633026 24 237 C21.13449138 238.81095728 18.31414662 239.43296163 15 240 C14.23816406 240.17917969 13.47632813 240.35835937 12.69140625 240.54296875 C3.74325217 242.06246661 -7.85130533 242.39093514 -16 238 C-24.24281282 231.78194788 -29.84911366 225.39564239 -33.25 215.6875 C-33.6521875 214.57665039 -33.6521875 214.57665039 -34.0625 213.44335938 C-34.71693048 211.63198929 -35.35967006 209.8164026 -36 208 C-36.33 208 -36.66 208 -37 208 C-37.93082845 217.12211886 -35.24798096 227.22617876 -29.44140625 234.4140625 C-27.09493047 237.08218531 -24.59703674 239.57441811 -22 242 C-29.15321517 246.76881012 -37.63486677 247.79689285 -46 249 C-46 249.33 -46 249.66 -46 250 C-35.46733855 251.42750357 -25.63428486 250.5966182 -15.375 247.8125 C-11.86745962 246.96809213 -11.27493868 247.16845035 -8 248 C3.19133042 248.79288171 12.35527203 247.34862855 23 244 C31.02150321 241.53649955 38.36239764 240.62031874 46.25 244.0234375 C52.44249838 247.47907275 55.10294871 253.06607258 57.10327148 259.60839844 C57.44967179 260.94022413 57.78860659 262.27400796 58.12109375 263.609375 C58.3984436 264.69014816 58.3984436 264.69014816 58.68139648 265.79275513 C59.27377203 268.11011904 59.85590483 270.42990941 60.4375 272.75 C60.84154931 274.34009013 61.24592821 275.93009655 61.65063477 277.52001953 C63.87287371 286.29084853 66.04577867 295.07031272 67.85913086 303.93652344 C68.88511725 309.16937101 68.88511725 309.16937101 71 314 C73.27764001 315.4571056 75.3155068 316.58342716 77.75 317.6875 C78.3584375 317.98205078 78.966875 318.27660156 79.59375 318.58007812 C85.4530518 321.36575045 90.52813889 323.26259651 97.0546875 323.1953125 C98.16328125 323.18886719 99.271875 323.18242187 100.4140625 323.17578125 C101.55617188 323.15902344 102.69828125 323.14226562 103.875 323.125 C105.62296875 323.11146484 105.62296875 323.11146484 107.40625 323.09765625 C110.27104577 323.07417432 113.13541535 323.04133141 116 323 C116.07048957 302.83115046 116.12318184 282.66232637 116.15543652 262.49337864 C116.17081968 253.12583325 116.19174277 243.75836498 116.22631836 234.39086914 C116.25648564 226.21371859 116.27563687 218.03662395 116.28226548 209.85941929 C116.28613215 205.54094471 116.295034 201.22262991 116.31719017 196.90420723 C116.57547692 144.45664741 106.75922251 101.50567724 69 63 C67.3357611 61.33090909 65.66947486 59.66385373 64 58 C63.42636719 57.40316406 62.85273438 56.80632812 62.26171875 56.19140625 C58.15508185 51.94210702 53.79849033 48.43347476 49 45 C47.14567583 43.64604902 45.29151735 42.29187109 43.4375 40.9375 C42.49777344 40.25816406 41.55804688 39.57882813 40.58984375 38.87890625 C39.09447122 37.79402814 37.60428099 36.70176501 36.12890625 35.58984375 C32.12594929 32.60442501 27.91383877 30.22355364 23.50390625 27.88671875 C20.67433601 26.36310401 17.8801963 24.80023084 15.08984375 23.20703125 C14.21223389 22.71090332 13.33462402 22.21477539 12.43041992 21.70361328 C10.67195671 20.70898203 8.91801681 19.70630189 7.16918945 18.69482422 C-0.90137079 14.16445401 -6.14094393 12.78669644 -14.5625 17.4375 Z M26 281 C25.78384033 281.7748877 25.56768066 282.54977539 25.3449707 283.34814453 C17.39297406 311.76412405 17.39297406 311.76412405 13 323 C15.31 323 17.62 323 20 323 C24.90157651 310.26452554 29.95970077 296.86230438 28 283 C27.34 282.34 26.68 281.68 26 281 Z " fill="#D7B252" transform="translate(261,88)"/>
<path d="M0 0 C4.90502221 5.91487972 5.67144831 11.04688324 5.484375 18.5859375 C5.04151613 22.25396419 3.89578615 24.93921041 2.20703125 28.19140625 C0.47465441 31.98762553 -0.28174013 35.9947207 -1.1640625 40.05859375 C-1.875 42.5625 -1.875 42.5625 -3.875 44.5625 C-4.74125 44.81 -5.6075 45.0575 -6.5 45.3125 C-10.31981314 46.72724561 -12.89814585 48.68570839 -16.04296875 51.22265625 C-19.34903329 53.64052434 -22.70492004 53.94461141 -26.734375 53.9296875 C-30.57118359 53.2715488 -32.92940931 51.01715891 -35.875 48.5625 C-36.1225 49.284375 -36.37 50.00625 -36.625 50.75 C-37.98483674 53.80963266 -39.70417754 56.0298738 -41.875 58.5625 C-44.4375 58.625 -44.4375 58.625 -47.875 57.5625 C-52.60229845 52.64303494 -56.00534943 48.20035464 -56.25 41.3125 C-56.29898438 40.37921875 -56.34796875 39.4459375 -56.3984375 38.484375 C-55.78125071 35.03918307 -54.28216916 33.80063096 -51.98388672 31.28125 C-49.80974397 27.91137661 -50.48909192 24.0465125 -50.75 20.1875 C-51.19020214 12.69216631 -50.76810947 6.76019465 -46.40234375 0.42578125 C-40.21313457 -5.61135891 -32.95463222 -10.00431649 -24.15625 -10.5 C-14.04586189 -10.22300307 -7.57822404 -6.42501604 0 0 Z " fill="#D7B252" transform="translate(306.875,204.4375)"/>
<path d="M0 0 C6.5033871 1.96328667 11.93446198 5.80107986 16.3125 11 C16.3125 11.99 16.3125 12.98 16.3125 14 C17.67375 13.2575 17.67375 13.2575 19.0625 12.5 C24.24352297 10.24460602 29.7674979 10.5624581 35.3125 11 C36.3025 11.495 36.3025 11.495 37.3125 12 C35.90252684 16.16242076 33.90113248 18.97662407 31.0625 22.3125 C28.37970801 25.51302378 25.72958062 28.7017461 23.25 32.0625 C19.74097337 36.81698398 16.02403178 41.40297586 12.3125 46 C9.87451552 45.52319861 7.43712484 45.04365871 5 44.5625 C4.30970703 44.42779297 3.61941406 44.29308594 2.90820312 44.15429688 C-0.03039007 43.57225668 -2.84206685 42.94847772 -5.6875 42 C-5.62239583 39.98177083 -5.55729167 37.96354167 -5.4921875 35.9453125 C-5.50418311 33.76136355 -5.50418311 33.76136355 -7.6875 32 C-13.0497243 31.48440151 -15.98396096 32.59596893 -20.6875 35 C-23.81388771 34.73202391 -24.98995884 33.79836077 -27.6875 32 C-26.81235829 27.47334173 -24.18564078 24.78943876 -21.1875 21.4375 C-20.09397164 20.19105122 -19.0015356 18.94364336 -17.91015625 17.6953125 C-17.36633301 17.0755957 -16.82250977 16.45587891 -16.26220703 15.81738281 C-13.26096108 12.35361926 -10.40128282 8.77670976 -7.52734375 5.20703125 C-3.18661504 0 -3.18661504 0 0 0 Z " fill="#D7B252" transform="translate(330.6875,263)"/>
<path d="M0 0 C-0.4979837 3.73487777 -0.87491756 5.81237635 -3 9 C5.415 10.485 5.415 10.485 14 12 C10.76382955 18.47234091 4.80167455 21.41372844 -1.76171875 24.15234375 C-10.76216606 26.8763285 -19.77682179 25.85058199 -29 25 C-28.09361808 18.91236021 -26.86189789 14.10972086 -22 10 C-15.60742905 5.34083779 -8.19674461 0 0 0 Z " fill="#D7B252" transform="translate(321,299)"/>
<path d="M0 0 C0.66 0 1.32 0 2 0 C5.02431664 6.66524153 6.51072012 13.14725484 7.3125 20.375 C7.40063965 21.14763184 7.4887793 21.92026367 7.57958984 22.71630859 C7.97204133 26.69886811 8.08314127 30.08822361 7 34 C3.04 33.505 3.04 33.505 -1 33 C-1.02936502 29.18751655 -1.04692035 25.37506274 -1.0625 21.5625 C-1.07087891 20.49322266 -1.07925781 19.42394531 -1.08789062 18.32226562 C-1.10684631 12.12375772 -0.82063259 6.1450519 0 0 Z " fill="#D7B252" transform="translate(267,270)"/>
</svg>
